<svg xmlns="http://www.w3.org/2000/svg" xmlns:xlink="http://www.w3.org/1999/xlink" width="1080" zoomAndPan="magnify" viewBox="0 0 810 809.999993" height="1080" preserveAspectRatio="xMidYMid meet" version="1.2"><defs><clipPath id="1392567b0a"><path d="M 49.230469 331.71875 L 313.980469 331.71875 L 313.980469 596.46875 L 49.230469 596.46875 Z M 49.230469 331.71875 "/></clipPath><clipPath id="ef54f3505b"><path d="M 181.605469 331.71875 C 108.496094 331.71875 49.230469 390.984375 49.230469 464.09375 C 49.230469 537.203125 108.496094 596.46875 181.605469 596.46875 C 254.710938 596.46875 313.980469 537.203125 313.980469 464.09375 C 313.980469 390.984375 254.710938 331.71875 181.605469 331.71875 Z M 181.605469 331.71875 "/></clipPath><clipPath id="7f8f0d218f"><path d="M 71.292969 353.78125 L 291.792969 353.78125 L 291.792969 574.28125 L 71.292969 574.28125 Z M 71.292969 353.78125 "/></clipPath><clipPath id="f2a0cf0028"><path d="M 181.542969 353.78125 C 120.652344 353.78125 71.292969 403.140625 71.292969 464.03125 C 71.292969 524.921875 120.652344 574.28125 181.542969 574.28125 C 242.429688 574.28125 291.792969 524.921875 291.792969 464.03125 C 291.792969 403.140625 242.429688 353.78125 181.542969 353.78125 Z M 181.542969 353.78125 "/></clipPath><clipPath id="b579552dcb"><path d="M 157.339844 437.621094 L 205.878906 437.621094 L 205.878906 486.160156 L 157.339844 486.160156 Z M 157.339844 437.621094 "/></clipPath><clipPath id="9a42ffaaa8"><path d="M 181.609375 437.621094 C 168.203125 437.621094 157.339844 448.488281 157.339844 461.890625 C 157.339844 475.296875 168.203125 486.160156 181.609375 486.160156 C 195.011719 486.160156 205.878906 475.296875 205.878906 461.890625 C 205.878906 448.488281 195.011719 437.621094 181.609375 437.621094 Z M 181.609375 437.621094 "/></clipPath><clipPath id="ad38499e88"><path d="M 496.011719 331.71875 L 760.761719 331.71875 L 760.761719 596.46875 L 496.011719 596.46875 Z M 496.011719 331.71875 "/></clipPath><clipPath id="5193e820d5"><path d="M 628.386719 331.71875 C 555.277344 331.71875 496.011719 390.984375 496.011719 464.09375 C 496.011719 537.203125 555.277344 596.46875 628.386719 596.46875 C 701.496094 596.46875 760.761719 537.203125 760.761719 464.09375 C 760.761719 390.984375 701.496094 331.71875 628.386719 331.71875 Z M 628.386719 331.71875 "/></clipPath><clipPath id="9b5915f3e8"><path d="M 518.074219 353.78125 L 738.574219 353.78125 L 738.574219 574.28125 L 518.074219 574.28125 Z M 518.074219 353.78125 "/></clipPath><clipPath id="a2f3d1c097"><path d="M 628.324219 353.78125 C 567.433594 353.78125 518.074219 403.140625 518.074219 464.03125 C 518.074219 524.921875 567.433594 574.28125 628.324219 574.28125 C 689.214844 574.28125 738.574219 524.921875 738.574219 464.03125 C 738.574219 403.140625 689.214844 353.78125 628.324219 353.78125 Z M 628.324219 353.78125 "/></clipPath><clipPath id="3b3cfd5b58"><path d="M 350.394531 421.074219 L 432.027344 421.074219 L 432.027344 502.707031 L 350.394531 502.707031 Z M 350.394531 421.074219 "/></clipPath><clipPath id="bc4f507ca1"><path d="M 391.210938 421.074219 C 368.667969 421.074219 350.394531 439.347656 350.394531 461.890625 C 350.394531 484.433594 368.667969 502.707031 391.210938 502.707031 C 413.753906 502.707031 432.027344 484.433594 432.027344 461.890625 C 432.027344 439.347656 413.753906 421.074219 391.210938 421.074219 Z M 391.210938 421.074219 "/></clipPath><clipPath id="93e14e2472"><path d="M 159.335938 150.84375 L 298.953125 150.84375 L 298.953125 232.445312 L 159.335938 232.445312 Z M 159.335938 150.84375 "/></clipPath><clipPath id="da6ac60a3f"><path d="M 298.679688 191.644531 C 298.679688 214.179688 280.410156 232.445312 257.875 232.445312 L 200.136719 232.445312 C 177.601562 232.445312 159.335938 214.179688 159.335938 191.644531 C 159.335938 169.109375 177.601562 150.84375 200.136719 150.84375 L 257.875 150.84375 C 280.410156 150.84375 298.679688 169.109375 298.679688 191.644531 Z M 298.679688 191.644531 "/></clipPath><clipPath id="e7547c2e74"><path d="M 272 150.925781 L 375.976562 150.925781 L 375.976562 204.925781 L 272 204.925781 Z M 272 150.925781 "/></clipPath><clipPath id="3ab926d8e6"><path d="M 226.394531 150.84375 L 346.410156 150.84375 L 346.410156 204.933594 L 226.394531 204.933594 Z M 226.394531 150.84375 "/></clipPath><clipPath id="e712a6b9e4"><path d="M 346.285156 177.890625 C 346.285156 185.0625 343.4375 191.941406 338.363281 197.011719 C 333.292969 202.085938 326.414062 204.933594 319.238281 204.933594 L 253.4375 204.933594 C 246.265625 204.933594 239.386719 202.085938 234.3125 197.011719 C 229.242188 191.941406 226.394531 185.0625 226.394531 177.890625 C 226.394531 170.714844 229.242188 163.835938 234.3125 158.765625 C 239.386719 153.691406 246.265625 150.84375 253.4375 150.84375 L 319.238281 150.84375 C 326.414062 150.84375 333.292969 153.691406 338.363281 158.765625 C 343.4375 163.835938 346.285156 170.714844 346.285156 177.890625 Z M 346.285156 177.890625 "/></clipPath><clipPath id="c76011ce1f"><path d="M 604.121094 437.621094 L 652.660156 437.621094 L 652.660156 486.160156 L 604.121094 486.160156 Z M 604.121094 437.621094 "/></clipPath><clipPath id="e8eef27823"><path d="M 628.390625 437.621094 C 614.988281 437.621094 604.121094 448.488281 604.121094 461.890625 C 604.121094 475.296875 614.988281 486.160156 628.390625 486.160156 C 641.796875 486.160156 652.660156 475.296875 652.660156 461.890625 C 652.660156 448.488281 641.796875 437.621094 628.390625 437.621094 Z M 628.390625 437.621094 "/></clipPath></defs><g id="53a203000a"><g clip-rule="nonzero" clip-path="url(#1392567b0a)"><g clip-rule="nonzero" clip-path="url(#ef54f3505b)"><path style="fill:none;stroke-width:68;stroke-linecap:butt;stroke-linejoin:miter;stroke:#4e6c8f;stroke-opacity:1;stroke-miterlimit:4;" d="M 176.50238 0.00119505 C 79.023208 0.00119505 0.00237084 79.022032 0.00237084 176.501204 C 0.00237084 273.980376 79.023208 353.001213 176.50238 353.001213 C 273.976343 353.001213 353.002389 273.980376 353.002389 176.501204 C 353.002389 79.022032 273.976343 0.00119505 176.50238 0.00119505 Z M 176.50238 0.00119505 " transform="matrix(0.75,0,0,0.75,49.228691,331.717854)"/></g></g><g clip-rule="nonzero" clip-path="url(#7f8f0d218f)"><g clip-rule="nonzero" clip-path="url(#f2a0cf0028)"><path style="fill:none;stroke-width:44;stroke-linecap:butt;stroke-linejoin:miter;stroke:#d1e3f8;stroke-opacity:1;stroke-miterlimit:4;" d="M 147.087201 0.0000872486 C 65.852234 0.0000872486 0.00125732 65.851064 0.00125732 147.08603 C 0.00125732 228.320997 65.852234 294.171974 147.087201 294.171974 C 228.316955 294.171974 294.173144 228.320997 294.173144 147.08603 C 294.173144 65.851064 228.316955 0.0000872486 147.087201 0.0000872486 Z M 147.087201 0.0000872486 " transform="matrix(0.749562,0,0,0.749562,71.292026,353.781185)"/></g></g><path style="fill:none;stroke-width:44;stroke-linecap:round;stroke-linejoin:miter;stroke:#43b14b;stroke-opacity:1;stroke-miterlimit:4;" d="M 21.999795 22.001606 L 319.328776 21.9984 " transform="matrix(0.469302,-0.584102,0.584102,0.469302,385.878968,456.192693)"/><path style="fill:none;stroke-width:44;stroke-linecap:round;stroke-linejoin:miter;stroke:#7ed957;stroke-opacity:1;stroke-miterlimit:4;" d="M 21.998706 21.996765 L 358.415693 22.000297 " transform="matrix(0.286308,0.692334,-0.692334,0.286308,282.196338,190.245128)"/><path style="fill:none;stroke-width:44;stroke-linecap:round;stroke-linejoin:miter;stroke:#7ed957;stroke-opacity:1;stroke-miterlimit:4;" d="M 22.001345 21.999219 L 257.469211 21.999219 " transform="matrix(0.748742,0,0,0.748742,181.6087,445.391542)"/><path style="fill:none;stroke-width:44;stroke-linecap:round;stroke-linejoin:miter;stroke:#7ed957;stroke-opacity:1;stroke-miterlimit:4;" d="M 22.000732 22.001637 L 267.201429 22.002102 " transform="matrix(0.599811,-0.449442,0.449442,0.599811,173.54418,453.320133)"/><g clip-rule="nonzero" clip-path="url(#b579552dcb)"><g clip-rule="nonzero" clip-path="url(#9a42ffaaa8)"><path style=" stroke:none;fill-rule:nonzero;fill:#4e6c8f;fill-opacity:1;" d="M 157.339844 437.621094 L 205.878906 437.621094 L 205.878906 486.160156 L 157.339844 486.160156 Z M 157.339844 437.621094 "/></g></g><g clip-rule="nonzero" clip-path="url(#ad38499e88)"><g clip-rule="nonzero" clip-path="url(#5193e820d5)"><path style="fill:none;stroke-width:48;stroke-linecap:butt;stroke-linejoin:miter;stroke:#4e6c8f;stroke-opacity:1;stroke-miterlimit:4;" d="M 176.500644 0.00119505 C 79.021472 0.00119505 0.000634938 79.022032 0.000634938 176.501204 C 0.000634938 273.980376 79.021472 353.001213 176.500644 353.001213 C 273.979815 353.001213 353.000653 273.980376 353.000653 176.501204 C 353.000653 79.022032 273.979815 0.00119505 176.500644 0.00119505 Z M 176.500644 0.00119505 " transform="matrix(0.75,0,0,0.75,496.011243,331.717854)"/></g></g><g clip-rule="nonzero" clip-path="url(#9b5915f3e8)"><g clip-rule="nonzero" clip-path="url(#a2f3d1c097)"><path style="fill:none;stroke-width:44;stroke-linecap:butt;stroke-linejoin:miter;stroke:#d1e3f8;stroke-opacity:1;stroke-miterlimit:4;" d="M 147.085518 0.0000872486 C 65.850552 0.0000872486 -0.000425164 65.851064 -0.000425164 147.08603 C -0.000425164 228.320997 65.850552 294.171974 147.085518 294.171974 C 228.320484 294.171974 294.171461 228.320997 294.171461 147.08603 C 294.171461 65.851064 228.320484 0.0000872486 147.085518 0.0000872486 Z M 147.085518 0.0000872486 " transform="matrix(0.749562,0,0,0.749562,518.074537,353.781185)"/></g></g><g clip-rule="nonzero" clip-path="url(#3b3cfd5b58)"><g clip-rule="nonzero" clip-path="url(#bc4f507ca1)"><path style=" stroke:none;fill-rule:nonzero;fill:#4e6c8f;fill-opacity:1;" d="M 350.394531 421.074219 L 432.027344 421.074219 L 432.027344 502.707031 L 350.394531 502.707031 Z M 350.394531 421.074219 "/></g></g><path style="fill:none;stroke-width:44;stroke-linecap:round;stroke-linejoin:miter;stroke:#43b14b;stroke-opacity:1;stroke-miterlimit:4;" d="M 21.997566 22.001759 L 272.503319 22.000425 " transform="matrix(0.70364,-0.259596,0.259596,0.70364,346.145991,327.936186)"/><path style="fill:none;stroke-width:44;stroke-linecap:round;stroke-linejoin:miter;stroke:#d1e3f8;stroke-opacity:1;stroke-miterlimit:4;" d="M 22.000879 22.000465 L 166.28281 21.997884 " transform="matrix(0.748697,-0.0165287,0.0165287,0.748697,511.11749,191.735708)"/><g clip-rule="nonzero" clip-path="url(#93e14e2472)"><g clip-rule="nonzero" clip-path="url(#da6ac60a3f)"><path style=" stroke:none;fill-rule:nonzero;fill:#4e6c8f;fill-opacity:1;" d="M 159.335938 150.84375 L 298.632812 150.84375 L 298.632812 232.445312 L 159.335938 232.445312 Z M 159.335938 150.84375 "/></g></g><g clip-rule="nonzero" clip-path="url(#e7547c2e74)"><path style=" stroke:none;fill-rule:nonzero;fill:#4e6c8f;fill-opacity:1;" d="M 373.894531 204.914062 L 324.046875 204.914062 L 324.046875 204.921875 L 272.121094 204.921875 L 272.121094 202.84375 C 272.121094 188.507812 277.933594 175.527344 287.332031 166.128906 C 296.726562 156.734375 309.707031 150.921875 324.046875 150.921875 C 338.382812 150.921875 351.367188 156.734375 360.761719 166.128906 C 370.160156 175.527344 375.972656 188.507812 375.972656 202.84375 L 375.972656 204.914062 Z M 373.894531 204.914062 "/></g><g clip-rule="nonzero" clip-path="url(#3ab926d8e6)"><g clip-rule="nonzero" clip-path="url(#e712a6b9e4)"><path style=" stroke:none;fill-rule:nonzero;fill:#4e6c8f;fill-opacity:1;" d="M 226.394531 150.84375 L 346.199219 150.84375 L 346.199219 204.933594 L 226.394531 204.933594 Z M 226.394531 150.84375 "/></g></g><path style="fill:none;stroke-width:44;stroke-linecap:round;stroke-linejoin:miter;stroke:#7ed957;stroke-opacity:1;stroke-miterlimit:4;" d="M 21.998378 21.999187 L 61.341383 21.998993 " transform="matrix(0.672473,-0.32536,0.32536,0.672473,312.5295,344.086203)"/><path style="fill:none;stroke-width:44;stroke-linecap:round;stroke-linejoin:miter;stroke:#7ed957;stroke-opacity:1;stroke-miterlimit:4;" d="M 22.001071 22.002676 L 358.415232 21.999397 " transform="matrix(0.286308,0.692334,-0.692334,0.286308,528.754441,185.608986)"/><path style="fill:none;stroke-width:44;stroke-linecap:round;stroke-linejoin:miter;stroke:#43b14b;stroke-opacity:1;stroke-miterlimit:4;" d="M 22.0016 22.001463 L 172.994479 22.001228 " transform="matrix(0.289179,0.692008,-0.692008,0.289179,591.331558,336.084231)"/><g clip-rule="nonzero" clip-path="url(#c76011ce1f)"><g clip-rule="nonzero" clip-path="url(#e8eef27823)"><path style=" stroke:none;fill-rule:nonzero;fill:#4e6c8f;fill-opacity:1;" d="M 604.121094 437.621094 L 652.660156 437.621094 L 652.660156 486.160156 L 604.121094 486.160156 Z M 604.121094 437.621094 "/></g></g></g></svg>